<?xml version="1.0" encoding="UTF-8"?>
<svg width="22px" height="22px" viewBox="0 0 22 22" version="1.1" xmlns="http://www.w3.org/2000/svg" xmlns:xlink="http://www.w3.org/1999/xlink">
    <!-- Generator: Sketch 57.1 (83088) - https://sketch.com -->
    <title>icon/hide_password</title>
    <desc>Created with Sketch.</desc>
    <g id="Page-1" stroke="none" stroke-width="1" fill="none" fill-rule="evenodd">
        <g id="1.3_Signin" transform="translate(-819.000000, -483.000000)">
            <g id="icon/hide_password" transform="translate(818.000000, 482.000000)">
                <polygon id="Path" points="0 0 24 0 24 24 0 24"></polygon>
                <path d="M19.899911,7.53431141 C21.2514119,8.75213236 22.3212176,10.2775406 23,12 C21.27,16.39 17,19.5 12,19.5 C10.770522,19.5 9.58518315,19.3119549 8.47089457,18.9630733 L10.1126517,17.3210572 C10.7252583,17.4389115 11.356463,17.5 12,17.5 C15.8,17.5 19.17,15.37 20.82,12 C20.2392407,10.8138432 19.4441576,9.78130583 18.4923093,8.94119633 Z M12,4.5 C13.5630699,4.5 15.0547987,4.80393253 16.4198892,5.35588929 L14.8564651,6.91831015 C13.947741,6.64468906 12.987796,6.5 12,6.5 C8.21,6.5 4.83,8.63 3.18,12 C3.89241355,13.4550507 4.92547243,14.6789385 6.17534387,15.6000269 L4.75905241,17.0176647 C3.09519435,15.7233743 1.78566591,13.993684 1,12 C2.73,7.61 7,4.5 12,4.5 Z M16.3963998,11.0382181 C16.4642419,11.3482197 16.5,11.6700384 16.5,12 C16.5,14.48 14.48,16.5 12,16.5 C11.6700384,16.5 11.3482197,16.4642419 11.0382181,16.3963998 L13.2980395,14.1366751 C13.639788,13.9285112 13.927753,13.6406754 14.136071,13.2990308 Z M12,7.5 C12.6659006,7.5 13.2986366,7.64563533 13.8680089,7.90670665 L12.260939,9.51347465 C12.1751686,9.50456617 12.0881143,9.5 12,9.5 C10.62,9.5 9.5,10.62 9.5,12 C9.5,12.0881143 9.50456617,12.1751686 9.51347465,12.260939 L7.90670665,13.8680089 C7.64563533,13.2986366 7.5,12.6659006 7.5,12 C7.5,9.52 9.52,7.5 12,7.5 Z" id="Combined-Shape" fill="#FF5252" fill-rule="nonzero"></path>
                <path d="M21.0949766,2.09497655 C21.4855008,1.70445226 22.1186658,1.70445226 22.5091901,2.09497655 C22.8997144,2.48550084 22.8997144,3.11866582 22.5091901,3.50919011 L3.90502345,22.1133568 C3.51449916,22.5038811 2.88133418,22.5038811 2.49080989,22.1133568 C2.10028559,21.7228325 2.10028559,21.0896675 2.49080989,20.6991432 L21.0949766,2.09497655 Z" id="Path" fill="#FF5252" fill-rule="nonzero"></path>
            </g>
        </g>
    </g>
</svg>